<?xml version="1.0" standalone="no"?>
<!DOCTYPE svg PUBLIC "-//W3C//DTD SVG 20010904//EN"
 "http://www.w3.org/TR/2001/REC-SVG-20010904/DTD/svg10.dtd">
<svg version="1.0" xmlns="http://www.w3.org/2000/svg"
 width="512.000000pt" height="512.000000pt" viewBox="0 0 512.000000 512.000000"
 preserveAspectRatio="xMidYMid meet">

<g transform="translate(0.000000,512.000000) scale(0.100000,-0.100000)"
fill="#000000" stroke="none">
<path d="M20 4460 c-13 -13 -18 -28 -15 -43 6 -25 226 -1224 250 -1362 9 -49
20 -110 25 -135 5 -25 16 -85 25 -135 9 -49 20 -110 25 -135 5 -25 16 -85 25
-135 34 -185 46 -251 55 -295 5 -25 16 -86 26 -135 l16 -91 -26 -38 c-23 -34
-26 -49 -26 -123 0 -84 0 -85 36 -121 l37 -37 -13 -65 c-23 -123 -39 -205 -56
-298 l-17 -92 65 -98 c36 -53 89 -127 119 -163 l55 -66 17 101 c10 55 22 121
27 146 5 25 16 86 25 135 9 50 20 110 25 135 5 25 16 86 25 135 9 50 18 100
21 113 l4 22 325 0 325 0 4 -22 c3 -13 12 -63 21 -113 9 -49 20 -110 25 -135
5 -25 16 -85 25 -135 9 -49 20 -110 25 -135 5 -25 16 -85 25 -135 9 -49 20
-110 25 -135 5 -25 16 -85 25 -135 9 -49 20 -110 25 -135 5 -25 16 -85 25
-135 9 -49 20 -110 25 -135 5 -25 14 -76 21 -114 11 -58 17 -69 39 -78 44 -17
281 -80 285 -76 3 2 1 20 -4 39 -5 19 -16 77 -25 129 -10 52 -21 115 -26 140
-5 25 -16 86 -25 135 -9 50 -20 110 -25 135 -5 25 -16 86 -25 135 -9 50 -20
110 -25 135 -5 25 -16 86 -25 135 -9 50 -20 110 -25 135 -5 25 -16 86 -25 135
-9 50 -20 110 -25 135 -5 25 -16 84 -26 132 l-16 87 42 40 43 40 -7 63 c-17
159 -125 277 -281 308 -54 10 -91 7 -385 -35 -179 -25 -339 -48 -356 -51 l-31
-6 -17 94 c-55 297 -70 376 -92 498 -14 74 -36 194 -50 265 -13 72 -31 168
-40 215 -8 47 -19 105 -24 130 -5 25 -16 86 -25 135 -9 50 -23 124 -31 165 -9
41 -51 266 -94 500 -61 330 -83 427 -96 437 -12 9 -54 13 -126 13 -95 0 -110
-2 -128 -20z"/>
<path d="M4846 4467 c-13 -10 -35 -108 -97 -441 -43 -236 -79 -433 -79 -438 0
-5 -4 -7 -9 -4 -5 4 -7 -2 -4 -12 2 -10 -7 -76 -21 -147 -13 -72 -36 -192 -50
-268 -14 -75 -37 -198 -50 -272 -14 -74 -37 -196 -50 -270 -104 -557 -108
-580 -111 -583 -1 -1 -112 14 -246 33 -456 66 -456 66 -533 50 -153 -32 -254
-145 -272 -303 l-7 -63 43 -40 42 -40 -16 -87 c-10 -48 -21 -107 -26 -132 -5
-25 -16 -85 -25 -135 -9 -49 -20 -110 -25 -135 -5 -25 -16 -85 -25 -135 -9
-49 -20 -110 -25 -135 -5 -25 -16 -85 -25 -135 -9 -49 -20 -110 -25 -135 -5
-25 -16 -85 -25 -135 -9 -49 -20 -110 -25 -135 -5 -25 -16 -88 -26 -140 -9
-52 -20 -110 -25 -129 -5 -19 -7 -37 -4 -39 6 -6 101 16 211 49 l100 31 12 71
c7 40 17 92 22 117 5 25 16 86 25 135 9 50 20 110 25 135 5 25 16 86 25 135 9
50 20 110 25 135 5 25 16 86 25 135 9 50 20 110 25 135 5 25 16 86 25 135 9
50 20 110 25 135 5 25 16 86 25 135 9 50 18 100 21 113 l4 22 325 0 325 0 4
-22 c3 -13 16 -88 31 -168 14 -80 30 -165 35 -190 5 -25 16 -85 25 -135 9 -49
23 -122 31 -162 8 -40 14 -81 14 -92 0 -11 4 -22 9 -25 19 -12 241 293 235
323 -2 9 -11 57 -19 106 -16 89 -31 167 -55 295 l-13 65 37 37 c36 36 36 37
36 121 0 74 -3 89 -26 123 l-26 38 16 91 c10 49 21 110 26 135 5 25 16 86 25
135 33 181 46 251 55 295 5 25 16 86 25 135 9 50 20 110 25 135 5 25 16 86 25
135 24 138 244 1337 250 1362 3 15 -2 30 -15 43 -18 18 -33 20 -128 20 -72 0
-114 -4 -126 -13z"/>
<path d="M2575 4392 c-11 -2 -28 -11 -37 -19 -12 -11 -22 -13 -30 -6 -15 11
-95 10 -121 -2 -22 -9 -57 -44 -73 -71 -6 -11 -10 -42 -9 -71 1 -49 0 -52 -30
-59 -16 -3 -33 -6 -37 -5 -5 0 -8 -3 -8 -9 0 -5 -4 -10 -9 -10 -12 0 -81 -69
-81 -81 0 -5 -5 -9 -10 -9 -6 0 -9 -3 -9 -7 5 -24 -16 -73 -33 -78 -21 -7 -57
-42 -74 -71 -12 -22 -11 -100 1 -127 21 -48 71 -81 131 -85 17 -2 24 -17 43
-98 13 -52 21 -97 19 -100 -3 -2 -181 -4 -397 -4 -329 0 -399 -3 -429 -16 -45
-18 -79 -49 -100 -89 -8 -16 -73 -259 -143 -540 -118 -469 -127 -512 -113
-532 l14 -23 685 0 685 0 0 -1140 0 -1140 150 0 150 0 0 1140 0 1140 676 0
c446 0 682 4 695 10 11 7 19 21 19 38 0 21 -194 767 -262 1007 -14 50 -61 102
-113 126 -36 17 -69 19 -347 19 -170 0 -308 3 -308 8 0 4 11 49 25 101 13 52
22 98 19 103 -3 4 -1 8 5 8 12 0 52 39 67 66 12 22 11 100 -1 129 -5 11 -14
24 -22 28 -14 9 -18 37 -5 37 15 0 35 66 37 120 2 101 -72 185 -174 197 -44 5
-66 -3 -55 -20 5 -7 2 -6 -6 3 -23 23 -82 25 -110 2 -21 -17 -26 -18 -53 -4
-35 18 -90 24 -97 12 -3 -5 -5 9 -5 30 0 63 -54 104 -120 92z"/>
</g>
</svg>
